<svg width="30" height="31" viewBox="0 0 30 31" fill="none" xmlns="http://www.w3.org/2000/svg">
<circle cx="15" cy="15.2812" r="15" fill="black"/>
<path d="M16.3589 19.1338V17.4711C16.3589 17.2455 16.5961 17.0628 16.8885 17.0628C17.9318 17.0628 18.4994 16.2377 18.5782 14.609H16.8885C16.5961 14.609 16.3589 14.426 16.3589 14.2006V10.6898C16.3589 10.4643 16.5961 10.2816 16.8885 10.2816H21.3935C21.6858 10.2816 21.9231 10.4645 21.9231 10.6898V14.2007C21.9231 14.9814 21.8209 15.6978 21.6202 16.3305C21.4141 16.9791 21.0977 17.5462 20.68 18.0161C20.2504 18.4991 19.7125 18.878 19.0823 19.1419C18.4474 19.4075 17.7092 19.5423 16.8882 19.5423C16.5961 19.5421 16.3589 19.3592 16.3589 19.1338ZM9.52943 17.0627C9.23708 17.0627 9 17.2455 9 17.4708V19.1338C9 19.3592 9.23708 19.542 9.52943 19.542C10.35 19.542 11.0885 19.4072 11.7231 19.1416C12.3536 18.8777 12.8914 18.4991 13.3209 18.0158C13.7389 17.5459 14.0553 16.9788 14.2614 16.3299C14.4622 15.6971 14.5642 14.9807 14.5642 14.2003V10.6895C14.5642 10.464 14.3269 10.2812 14.0346 10.2812H9.52943C9.23708 10.2812 9 10.4641 9 10.6895V14.2003C9 14.4258 9.23708 14.6086 9.52943 14.6086H11.1954C11.1176 16.2375 10.5582 17.0627 9.52943 17.0627Z" fill="white"/>
</svg>
