<svg width="140" height="41" viewBox="0 0 140 41" fill="none" xmlns="http://www.w3.org/2000/svg">
<path d="M31.5294 14.493C31.5294 19.1631 28.7623 23.1894 24.7793 25.0163C26.4612 23.6309 27.5322 21.5292 27.5322 19.1772C27.5322 15.0454 24.2259 11.6854 20.112 11.6017C20.0574 11.5979 20.0075 11.5979 19.9529 11.5979C19.8983 11.5979 19.8485 11.5979 19.7939 11.6017C18.2673 11.6845 17.0588 12.9476 17.0588 14.492V28.9626C17.0588 33.756 13.1699 37.645 8.37646 37.645V14.493C8.37646 8.1005 13.5605 2.9165 19.9529 2.9165C26.3454 2.9165 31.5294 8.1005 31.5294 14.493Z" fill="white"/>
<path d="M21.9992 16.5396C23.1294 15.4094 23.1294 13.5769 21.9992 12.4467C20.8689 11.3165 19.0365 11.3165 17.9063 12.4467C16.7761 13.5769 16.7761 15.4094 17.9063 16.5396C19.0365 17.6698 20.8689 17.6698 21.9992 16.5396Z" fill="white"/>
<path d="M56.4258 23.1012V20.2612H59.0458C59.5524 20.2612 59.9858 20.1612 60.3458 19.9612C60.7191 19.7612 61.0058 19.4812 61.2058 19.1212C61.4058 18.7479 61.5058 18.3212 61.5058 17.8412C61.5058 17.3346 61.4058 16.9012 61.2058 16.5412C61.0058 16.1679 60.7191 15.8879 60.3458 15.7012C59.9858 15.5012 59.5524 15.4012 59.0458 15.4012H56.4258V12.5612H58.8858C60.1258 12.5612 61.1858 12.7679 62.0658 13.1812C62.9591 13.5946 63.6391 14.1812 64.1058 14.9412C64.5858 15.7012 64.8258 16.6146 64.8258 17.6812V18.0012C64.8258 19.0412 64.5858 19.9479 64.1058 20.7212C63.6391 21.4812 62.9591 22.0679 62.0658 22.4812C61.1858 22.8946 60.1258 23.1012 58.8858 23.1012H56.4258ZM53.5458 27.2812V12.5612H56.8258V27.2812H53.5458ZM71.1889 27.6613C70.2556 27.6613 69.4289 27.5013 68.7089 27.1812C68.0022 26.8612 67.4089 26.4346 66.9289 25.9012C66.4622 25.3546 66.1022 24.7479 65.8489 24.0812C65.6089 23.4012 65.4889 22.7079 65.4889 22.0013V21.6012C65.4889 20.8679 65.6089 20.1679 65.8489 19.5012C66.1022 18.8212 66.4622 18.2146 66.9289 17.6812C67.3956 17.1479 67.9756 16.7279 68.6689 16.4212C69.3756 16.1012 70.1756 15.9412 71.0689 15.9412C72.2422 15.9412 73.2289 16.2079 74.0289 16.7412C74.8422 17.2612 75.4622 17.9479 75.8889 18.8012C76.3156 19.6412 76.5289 20.5612 76.5289 21.5612V22.6412H66.8289V20.8212H74.5889L73.5489 21.6612C73.5489 21.0079 73.4556 20.4479 73.2689 19.9812C73.0822 19.5146 72.8022 19.1612 72.4289 18.9212C72.0689 18.6679 71.6156 18.5412 71.0689 18.5412C70.5089 18.5412 70.0356 18.6679 69.6489 18.9212C69.2622 19.1746 68.9689 19.5479 68.7689 20.0412C68.5689 20.5212 68.4689 21.1146 68.4689 21.8212C68.4689 22.4746 68.5622 23.0479 68.7489 23.5412C68.9356 24.0212 69.2289 24.3946 69.6289 24.6612C70.0289 24.9279 70.5489 25.0612 71.1889 25.0612C71.7756 25.0612 72.2556 24.9479 72.6289 24.7212C73.0022 24.4946 73.2556 24.2146 73.3889 23.8812H76.3289C76.1689 24.6146 75.8556 25.2679 75.3889 25.8412C74.9222 26.4146 74.3356 26.8612 73.6289 27.1812C72.9222 27.5013 72.1089 27.6613 71.1889 27.6613ZM78.2494 27.2812V16.3212H80.7894V21.0212H80.7294C80.7294 19.4746 81.056 18.2812 81.7094 17.4412C82.376 16.6012 83.336 16.1812 84.5894 16.1812H85.0094V18.9412H84.2094C83.3294 18.9412 82.6494 19.1812 82.1694 19.6612C81.6894 20.1279 81.4494 20.8079 81.4494 21.7012V27.2812H78.2494ZM90.4273 27.6213C88.8673 27.6213 87.6473 27.3013 86.7673 26.6612C85.8873 26.0212 85.4207 25.1212 85.3673 23.9612H88.2073C88.2607 24.3079 88.4673 24.6212 88.8273 24.9012C89.2007 25.1679 89.754 25.3012 90.4873 25.3012C91.0473 25.3012 91.5073 25.2079 91.8673 25.0212C92.2407 24.8212 92.4273 24.5412 92.4273 24.1812C92.4273 23.8612 92.2873 23.6079 92.0073 23.4212C91.7273 23.2212 91.2273 23.0812 90.5073 23.0012L89.6473 22.9212C88.3273 22.7879 87.334 22.4212 86.6673 21.8212C86.014 21.2212 85.6873 20.4546 85.6873 19.5212C85.6873 18.7479 85.8807 18.1012 86.2673 17.5812C86.654 17.0612 87.1873 16.6679 87.8673 16.4012C88.5607 16.1346 89.3473 16.0012 90.2273 16.0012C91.6407 16.0012 92.7807 16.3146 93.6473 16.9412C94.514 17.5546 94.9673 18.4479 95.0073 19.6212H92.1673C92.114 19.2612 91.9273 18.9612 91.6073 18.7212C91.2873 18.4679 90.814 18.3412 90.1873 18.3412C89.694 18.3412 89.3007 18.4346 89.0073 18.6212C88.714 18.8079 88.5673 19.0612 88.5673 19.3812C88.5673 19.6879 88.694 19.9212 88.9473 20.0812C89.2007 20.2412 89.614 20.3546 90.1873 20.4212L91.0473 20.5012C92.394 20.6479 93.4407 21.0212 94.1873 21.6212C94.934 22.2212 95.3073 23.0279 95.3073 24.0412C95.3073 24.7746 95.1073 25.4146 94.7073 25.9613C94.3073 26.4946 93.7407 26.9079 93.0073 27.2012C92.274 27.4813 91.414 27.6213 90.4273 27.6213ZM102.321 27.6613C101.361 27.6613 100.507 27.5146 99.7606 27.2212C99.0139 26.9146 98.3806 26.5012 97.8606 25.9812C97.3539 25.4612 96.9673 24.8679 96.7006 24.2012C96.4339 23.5212 96.3006 22.8079 96.3006 22.0612V21.6012C96.3006 20.8412 96.4339 20.1212 96.7006 19.4412C96.9806 18.7479 97.3806 18.1412 97.9006 17.6212C98.4339 17.1012 99.0739 16.6946 99.8206 16.4012C100.567 16.0946 101.401 15.9412 102.321 15.9412C103.267 15.9412 104.107 16.0946 104.841 16.4012C105.587 16.6946 106.221 17.1012 106.741 17.6212C107.261 18.1412 107.661 18.7479 107.941 19.4412C108.221 20.1212 108.361 20.8412 108.361 21.6012V22.0612C108.361 22.8079 108.227 23.5212 107.961 24.2012C107.694 24.8679 107.301 25.4612 106.781 25.9812C106.274 26.5012 105.647 26.9146 104.901 27.2212C104.154 27.5146 103.294 27.6613 102.321 27.6613ZM102.321 24.9612C102.947 24.9612 103.467 24.8279 103.881 24.5612C104.294 24.2946 104.607 23.9212 104.821 23.4412C105.047 22.9612 105.161 22.4279 105.161 21.8412C105.161 21.2146 105.047 20.6679 104.821 20.2012C104.594 19.7212 104.267 19.3412 103.841 19.0612C103.427 18.7812 102.921 18.6412 102.321 18.6412C101.734 18.6412 101.227 18.7812 100.801 19.0612C100.374 19.3412 100.047 19.7212 99.8206 20.2012C99.6073 20.6679 99.5006 21.2146 99.5006 21.8412C99.5006 22.4279 99.6073 22.9612 99.8206 23.4412C100.034 23.9212 100.354 24.2946 100.781 24.5612C101.207 24.8279 101.721 24.9612 102.321 24.9612ZM110.194 27.2812V16.3212H112.734V21.0212H112.554C112.554 19.9012 112.694 18.9679 112.974 18.2212C113.267 17.4746 113.707 16.9146 114.294 16.5412C114.881 16.1679 115.594 15.9813 116.434 15.9813H116.574C117.854 15.9813 118.827 16.4012 119.494 17.2412C120.174 18.0679 120.514 19.3279 120.514 21.0212V27.2812H117.314V20.8412C117.314 20.2546 117.141 19.7746 116.794 19.4012C116.447 19.0279 115.981 18.8412 115.394 18.8412C114.794 18.8412 114.307 19.0346 113.934 19.4212C113.574 19.7946 113.394 20.2879 113.394 20.9012V27.2812H110.194ZM129.461 27.2812V24.0412H128.921V20.5212C128.921 19.9612 128.787 19.5412 128.521 19.2612C128.254 18.9812 127.827 18.8412 127.241 18.8412C126.947 18.8412 126.561 18.8479 126.081 18.8612C125.601 18.8746 125.107 18.8946 124.601 18.9212C124.094 18.9479 123.634 18.9746 123.221 19.0012V16.3012C123.527 16.2746 123.887 16.2479 124.301 16.2212C124.714 16.1946 125.141 16.1746 125.581 16.1612C126.021 16.1479 126.434 16.1412 126.821 16.1412C127.941 16.1412 128.881 16.3012 129.641 16.6212C130.414 16.9412 131.001 17.4279 131.401 18.0812C131.801 18.7212 132.001 19.5479 132.001 20.5612V27.2812H129.461ZM125.961 27.5613C125.174 27.5613 124.481 27.4213 123.881 27.1412C123.294 26.8612 122.834 26.4612 122.501 25.9412C122.167 25.4079 122.001 24.7746 122.001 24.0412C122.001 23.2412 122.207 22.5879 122.621 22.0812C123.034 21.5612 123.614 21.1812 124.361 20.9412C125.107 20.6879 125.967 20.5612 126.941 20.5612H129.281V22.3412H126.921C126.361 22.3412 125.927 22.4812 125.621 22.7612C125.327 23.0279 125.181 23.3946 125.181 23.8612C125.181 24.3012 125.327 24.6612 125.621 24.9412C125.927 25.2079 126.361 25.3412 126.921 25.3412C127.281 25.3412 127.601 25.2812 127.881 25.1612C128.174 25.0279 128.414 24.8079 128.601 24.5012C128.787 24.1946 128.894 23.7679 128.921 23.2212L129.681 24.0212C129.614 24.7812 129.427 25.4212 129.121 25.9412C128.827 26.4612 128.414 26.8612 127.881 27.1412C127.361 27.4213 126.721 27.5613 125.961 27.5613ZM134.456 27.2812V12.6812H137.676V27.2812H134.456ZM133.156 15.0412V12.6812H137.676V15.0412H133.156Z" fill="white"/>
</svg>
